<?xml version="1.0" encoding="UTF-8"?>
<!DOCTYPE svg PUBLIC "-//W3C//DTD SVG 1.1//EN" "http://www.w3.org/Graphics/SVG/1.1/DTD/svg11.dtd">
<!-- Creator: CorelDRAW X6 -->
<svg xmlns="http://www.w3.org/2000/svg" xml:space="preserve" width="1315px" height="568px" version="1.1" style="shape-rendering:geometricPrecision; text-rendering:geometricPrecision; image-rendering:optimizeQuality; fill-rule:evenodd; clip-rule:evenodd"
viewBox="0 0 740 320"
 xmlns:xlink="http://www.w3.org/1999/xlink">
 <defs>
  <style type="text/css">
   <![CDATA[
    .fil1 {fill:#FEFEFE}
    .fil0 {fill:#CD773A}
   ]]>
  </style>
 </defs>
 <g id="Capa_x0020_1">
  <metadata id="CorelCorpID_0Corel-Layer"/>
  <path class="fil0" d="M146 292c1,-3 23,-35 26,-40 9,-13 17,-26 27,-40l26 -40c4,-7 9,-13 13,-20 5,-6 8,-13 13,-20l44 0c-1,-4 -56,-93 -61,-100 -4,-6 -7,-11 -10,-17 -3,-4 -8,-12 -10,-16 -3,2 -51,75 -54,80 -36,52 -72,108 -107,160l-54 80 415 0 -18 -27 -251 0z"/>
  <path class="fil1" d="M397 275c3,-8 6,-17 8,-25 3,-9 5,-16 8,-25l16 -49 0 98 43 0 0 -125 -55 0c-1,6 -22,68 -24,71l-22 -71 -56 0 0 125 19 0 0 -97 31 97 30 0zm147 -96l17 42 -34 0 17 -42zm-27 63l49 0c2,1 1,1 2,3 1,2 1,3 2,4l10 25 47 0 -47 -124 -44 0 -55 124 21 0 15 -33zm224 12c-8,0 -16,0 -25,0 -31,0 -31,3 -31,-17l0 -49c0,-8 -1,-16 6,-18 6,-1 40,1 48,-1l0 -20c-7,-1 -74,-1 -79,1 -23,7 -18,38 -18,62 0,24 -5,55 20,61 7,2 68,1 80,1l0 -21zm-561 20c5,1 53,0 62,0 34,0 60,5 60,-33l0 -92 -44 0c0,28 0,57 0,85 0,22 -2,19 -23,19 -14,0 -28,0 -42,0 -5,5 -9,15 -13,20z"/>
  <path class="fil1" d="M497 309c1,-6 3,-9 2,-15 -5,-2 -22,-3 -26,1 -2,3 -6,19 -5,22 3,3 18,1 24,1 2,-1 2,-3 2,-5 -17,0 -17,2 -16,-5l18 0zm-14 -12l7 0 0 0 -1 6 -8 0c0,-2 1,-5 2,-6 0,0 0,0 0,0 0,0 0,0 0,0 0,0 0,0 0,0 0,0 0,0 0,0zm185 17c0,-3 1,-8 2,-11 1,-6 2,-5 8,-5 1,3 -1,6 -1,10 -1,6 0,6 -8,6zm-10 5c4,1 10,0 14,0 5,0 10,1 12,-3 2,-3 7,-21 3,-23 -2,-1 -11,-1 -14,-1 -5,0 -9,-1 -12,3 -3,4 -6,18 -4,23zm-199 -26c-5,0 -18,-1 -22,1 -4,2 -7,10 -6,16 5,3 10,0 14,2 -1,3 -1,3 -4,3 -12,0 -12,-2 -13,4 4,0 20,1 23,-1 3,-2 8,-12 4,-17 -4,-2 -11,0 -14,-1 1,-4 6,-2 15,-2l1 -5zm269 0c-4,0 -19,-1 -22,1 -4,2 -8,12 -5,16 3,4 10,0 14,2 -1,4 -6,3 -16,3l-1 5c4,0 20,1 23,-1 4,-2 8,-12 4,-17 -4,-2 -10,1 -14,-1 1,-3 3,-2 7,-2 3,0 6,0 8,0l1 -5zm-103 5c2,-1 2,-3 2,-5 -23,0 -22,-2 -26,15 -3,12 -1,12 20,11l1 -5c-4,0 -8,1 -11,0 -1,-3 2,-12 3,-15l11 0zm-69 21c3,-1 6,-10 7,-13 2,-4 5,-9 6,-13l-4 0c-1,2 -3,5 -4,8l-5 8 -1 -16 -10 0 1 26 9 0zm-22 -26l-8 1c-2,0 1,0 -1,0 -13,-2 -10,-2 -14,12 -1,5 -2,9 -3,13l10 0c2,-3 3,-9 3,-13 1,-7 4,-5 11,-5l1 -7zm116 0l-9 0 -7 26 9 0 7 -26zm-60 0c-12,0 -8,-1 -11,9 -1,5 -3,11 -4,17l9 0 7 -26z"/>
 </g>
</svg>
